# Exported from ProBuilder
# http://www.procore3d.com/probuilder
# 06/07/2018 11:10:35

mtllib ./PlayerModel2.mtl
o PlayerModel2

g New Game Object
v 0.5828558 -0.04451056 -0.6911507
v 0.2931829 -0.04451056 -0.6278662
v 0.0006415695 -0.04451061 -0.2754885
v 0.2909561 -0.04451066 0.076
v 0.2931829 -0.04451056 -0.6278662
v 0.003509931 -0.04451056 -0.5645817
v -0.2896729 -0.04451056 -0.6269771
v 0.0006415695 -0.04451061 -0.2754885
v -0.2896729 -0.04451056 -0.6269771
v -0.5828558 -0.04451056 -0.6893725
v -0.2918997 -0.04451066 0.07688912
v 0.0006415695 -0.04451061 -0.2754885
v -0.2918997 -0.04451066 0.07688912
v -0.0009436682 -0.04451075 0.8431507
v 0.2909561 -0.04451066 0.076
v 0.0006415695 -0.04451061 -0.2754885
v -0.5828558 0.04451074 -0.6893725
v -0.2896729 0.04451074 -0.6269771
v 0.0006415695 0.04451069 -0.2754885
v -0.2918997 0.04451065 0.07688912
v -0.2896729 0.04451074 -0.6269771
v 0.003509931 0.04451074 -0.5645817
v 0.2931829 0.04451074 -0.6278662
v 0.0006415695 0.04451069 -0.2754885
v 0.2931829 0.04451074 -0.6278662
v 0.5828558 0.04451074 -0.6911507
v 0.2909561 0.04451065 0.076
v 0.0006415695 0.04451069 -0.2754885
v 0.2909561 0.04451065 0.076
v -0.0009436682 0.04451055 0.8431507
v -0.2918997 0.04451065 0.07688912
v 0.0006415695 0.04451069 -0.2754885
v -0.5828558 -0.04451056 -0.6893725
v -0.2896729 -0.04451056 -0.6269771
v -0.289673 9.313226E-08 -0.6269771
v -0.5828558 9.313226E-08 -0.6893725
v -0.2896729 -0.04451056 -0.6269771
v 0.003509931 -0.04451056 -0.5645817
v 0.003509931 9.313226E-08 -0.5645817
v -0.289673 9.313226E-08 -0.6269771
v 0.003509931 9.313226E-08 -0.5645817
v 0.003509931 0.04451074 -0.5645817
v -0.2896729 0.04451074 -0.6269771
v -0.289673 9.313226E-08 -0.6269771
v -0.2896729 0.04451074 -0.6269771
v -0.5828558 0.04451074 -0.6893725
v -0.5828558 9.313226E-08 -0.6893725
v -0.289673 9.313226E-08 -0.6269771
v -0.0009436682 -0.04451075 0.8431507
v -0.2918997 -0.04451066 0.07688912
v -0.2918997 -3.72529E-09 0.07688912
v -0.0009436682 -1.005828E-07 0.8431507
v -0.2918997 -0.04451066 0.07688912
v -0.5828558 -0.04451056 -0.6893725
v -0.5828558 9.313226E-08 -0.6893725
v -0.2918997 -3.72529E-09 0.07688912
v -0.5828558 9.313226E-08 -0.6893725
v -0.5828558 0.04451074 -0.6893725
v -0.2918997 0.04451065 0.07688912
v -0.2918997 -3.72529E-09 0.07688912
v -0.2918997 0.04451065 0.07688912
v -0.0009436682 0.04451055 0.8431507
v -0.0009436682 -1.005828E-07 0.8431507
v -0.2918997 -3.72529E-09 0.07688912
v 0.003509931 -0.04451056 -0.5645817
v 0.2931829 -0.04451056 -0.6278662
v 0.2931829 9.313226E-08 -0.6278662
v 0.003509931 9.313226E-08 -0.5645817
v 0.2931829 -0.04451056 -0.6278662
v 0.5828558 -0.04451056 -0.6911507
v 0.5828558 9.313226E-08 -0.6911507
v 0.2931829 9.313226E-08 -0.6278662
v 0.5828558 9.313226E-08 -0.6911507
v 0.5828558 0.04451074 -0.6911507
v 0.2931829 0.04451074 -0.6278662
v 0.2931829 9.313226E-08 -0.6278662
v 0.2931829 0.04451074 -0.6278662
v 0.003509931 0.04451074 -0.5645817
v 0.003509931 9.313226E-08 -0.5645817
v 0.2931829 9.313226E-08 -0.6278662
v 0.5828558 -0.04451056 -0.6911507
v 0.2909561 -0.04451066 0.076
v 0.2909561 -3.72529E-09 0.076
v 0.5828558 9.313226E-08 -0.6911507
v 0.2909561 -0.04451066 0.076
v -0.0009436682 -0.04451075 0.8431507
v -0.0009436682 -1.005828E-07 0.8431507
v 0.2909561 -3.72529E-09 0.076
v -0.0009436682 -1.005828E-07 0.8431507
v -0.0009436682 0.04451055 0.8431507
v 0.2909561 0.04451065 0.076
v 0.2909561 -3.72529E-09 0.076
v 0.2909561 0.04451065 0.076
v 0.5828558 0.04451074 -0.6911507
v 0.5828558 9.313226E-08 -0.6911507
v 0.2909561 -3.72529E-09 0.076

vn -1.509664E-08 -1 -1.376557E-07
vn -3.667732E-08 -1 -1.678835E-07
vn -1.509664E-08 -1 -1.376557E-07
vn -9.553385E-09 -1 -1.298913E-07
vn -2.555481E-10 -1 -1.675221E-07
vn 0 1 0
vn -2.555481E-10 -1 -1.675221E-07
vn -2.099162E-10 -0.9999999 -1.376085E-07
vn 3.557651E-08 -1 -1.671666E-07
vn 1.457733E-08 -1 -1.375618E-07
vn 9.117747E-09 -1 -1.298648E-07
vn 1.457733E-08 -1 -1.375618E-07
vn 1.313595E-08 -1 -1.265289E-07
vn -1.930441E-10 -1 -1.265478E-07
vn -1.357839E-08 -1 -1.265668E-07
vn -1.930441E-10 -1 -1.265478E-07
vn -8.207217E-09 1 1.375819E-07
vn -3.831317E-08 1 1.800256E-07
vn -8.207217E-09 1 1.375819E-07
vn -3.799578E-10 1 1.26547E-07
vn 2.752057E-10 1 1.804085E-07
vn 0 -1 0
vn 2.752057E-10 1 1.804085E-07
vn 2.260636E-10 1 1.481938E-07
vn 3.949865E-08 1 1.807976E-07
vn 8.683667E-09 0.9999999 1.376353E-07
vn 7.684683E-10 1 1.265486E-07
vn 8.683667E-09 0.9999999 1.376353E-07
vn 1.930434E-10 1 1.265478E-07
vn 1.927105E-10 0.9999999 1.263295E-07
vn 1.930434E-10 1 1.265478E-07
vn 1.937688E-10 1 1.270233E-07
vn 0.2081589 6.968691E-08 -0.9780951
vn 0.2081589 1.393738E-07 -0.9780951
vn 0.2081589 6.968691E-08 -0.9780951
vn 0.2081589 0 -0.978095
vn 0.2081589 1.393738E-07 -0.9780951
vn 0.2081589 6.968689E-08 -0.978095
vn 0.2081589 0 -0.978095
vn 0.2081589 6.968689E-08 -0.978095
vn 0.2081589 -6.968691E-08 -0.9780951
vn 0.2081589 0 -0.9780951
vn 0.2081589 -6.968691E-08 -0.9780951
vn 0.2081589 -1.393738E-07 -0.9780951
vn 0.2081589 -1.393738E-07 -0.9780951
vn 0.2081589 -6.968691E-08 -0.9780951
vn 0.2081589 0 -0.978095
vn 0.2081589 -6.968691E-08 -0.9780951
vn -0.9348741 0 0.3549797
vn -0.9348741 0 0.3549797
vn -0.9348741 0 0.3549797
vn -0.9348741 0 0.3549797
vn -0.9348741 0 0.3549797
vn -0.9348741 0 0.3549797
vn -0.9348741 0 0.3549797
vn -0.9348741 0 0.3549797
vn -0.9348741 0 0.3549797
vn -0.9348741 0 0.3549797
vn -0.9348741 0 0.3549797
vn -0.9348741 0 0.3549797
vn -0.9348741 0 0.3549797
vn -0.9348741 0 0.3549797
vn -0.9348741 0 0.3549797
vn -0.9348741 0 0.3549797
vn -0.2134347 0 -0.9769573
vn -0.2134347 0 -0.9769573
vn -0.2134347 0 -0.9769573
vn -0.2134347 0 -0.9769573
vn -0.2134347 0 -0.9769573
vn -0.2134347 0 -0.9769573
vn -0.2134347 0 -0.9769573
vn -0.2134347 0 -0.9769573
vn -0.2134347 0 -0.9769573
vn -0.2134347 0 -0.9769573
vn -0.2134347 0 -0.9769573
vn -0.2134347 0 -0.9769573
vn -0.2134347 0 -0.9769573
vn -0.2134347 0 -0.9769573
vn -0.2134347 0 -0.9769573
vn -0.2134347 0 -0.9769573
vn 0.9346288 0 0.3556249
vn 0.9346288 0 0.3556249
vn 0.9346288 0 0.3556249
vn 0.9346288 0 0.3556249
vn 0.9346288 0 0.3556249
vn 0.9346288 0 0.3556249
vn 0.9346288 0 0.3556249
vn 0.9346288 0 0.3556249
vn 0.9346288 0 0.3556249
vn 0.9346288 0 0.3556249
vn 0.9346288 0 0.3556249
vn 0.9346288 0 0.3556249
vn 0.9346288 0 0.3556249
vn 0.9346288 0 0.3556249
vn 0.9346288 0 0.3556249
vn 0.9346288 0 0.3556249

vt 0 0
vt -0.3620912 0.07910562
vt -0.7277678 0.5195777
vt -0.3648747 0.9589384
vt -0.3620912 0.07910562
vt -0.7241823 0.1582112
vt -1.090661 0.08021697
vt -0.7277678 0.5195777
vt -1.090661 0.08021697
vt -1.457139 0.002222717
vt -1.093444 0.9600497
vt -0.7277678 0.5195777
vt -1.093444 0.9600497
vt -0.7297493 1.917877
vt -0.3648747 0.9589384
vt -0.7277678 0.5195777
vt 1.457139 0.002222716
vt 1.090661 0.08021697
vt 0.7277678 0.5195777
vt 1.093444 0.9600497
vt 1.090661 0.08021697
vt 0.7241823 0.1582112
vt 0.3620912 0.07910562
vt 0.7277678 0.5195777
vt 0.3620912 0.07910562
vt -6.135454E-10 -3.828456E-10
vt 0.3648747 0.9589384
vt 0.7277678 0.5195777
vt 0.3648747 0.9589384
vt 0.7297493 1.917877
vt 1.093444 0.9600497
vt 0.7277678 0.5195777
vt 1.424758 -9.628389E-09
vt 1.050072 3.52046E-09
vt 1.050072 0.05563832
vt 1.424758 0.05563831
vt 1.050072 3.52046E-09
vt 0.6753861 1.666931E-08
vt 0.6753861 0.05563833
vt 1.050072 0.05563832
vt 0.6753861 0.05563833
vt 0.6753861 0.1112766
vt 1.050072 0.1112766
vt 1.050072 0.05563832
vt 1.050072 0.1112766
vt 1.424758 0.1112766
vt 1.424758 0.05563831
vt 1.050072 0.05563832
vt 1.533927 8.491128E-08
vt 0.509375 4.2643E-08
vt 0.509375 0.05563835
vt 1.533927 0.0556384
vt 0.509375 4.2643E-08
vt -0.515177 3.747221E-10
vt -0.515177 0.05563831
vt 0.509375 0.05563835
vt -0.515177 0.05563831
vt -0.515177 0.1112766
vt 0.509375 0.1112767
vt 0.509375 0.05563835
vt 0.509375 0.1112767
vt 1.533927 0.1112767
vt 1.533927 0.0556384
vt 0.509375 0.05563835
vt 0.741263 2.667242E-08
vt 0.3706315 1.333621E-08
vt 0.3706315 0.05563833
vt 0.741263 0.05563834
vt 0.3706315 1.333621E-08
vt 0 0
vt 1.172214E-09 0.05563831
vt 0.3706315 0.05563833
vt 1.172214E-09 0.05563831
vt 2.344427E-09 0.1112766
vt 0.3706315 0.1112766
vt 0.3706315 0.05563833
vt 0.3706315 0.1112766
vt 0.741263 0.1112767
vt 0.741263 0.05563834
vt 0.3706315 0.05563833
vt 0 0
vt -1.02601 4.245564E-08
vt -1.02601 0.05563835
vt 1.155639E-09 0.05563831
vt -1.02601 4.245564E-08
vt -2.05202 8.491128E-08
vt -2.05202 0.0556384
vt -1.02601 0.05563835
vt -2.05202 0.0556384
vt -2.05202 0.1112767
vt -1.02601 0.1112767
vt -1.02601 0.05563835
vt -1.02601 0.1112767
vt 2.311277E-09 0.1112766
vt 1.155639E-09 0.05563831
vt -1.02601 0.05563835

g New Game Object
usemtl Default_Prototype
f 4/4/4 3/3/3 2/2/2 1/1/1
f 8/8/8 7/7/7 6/6/6 5/5/5
f 11/11/11 10/10/10 9/9/9 12/12/12
f 13/13/13 16/16/16 15/15/15 14/14/14
f 20/20/20 19/19/19 18/18/18 17/17/17
f 24/24/24 23/23/23 22/22/22 21/21/21
f 27/27/27 26/26/26 25/25/25 28/28/28
f 30/30/30 29/29/29 32/32/32 31/31/31
f 34/34/34 33/33/33 36/36/36 35/35/35
f 39/39/39 38/38/38 37/37/37 40/40/40
f 42/42/42 41/41/41 44/44/44 43/43/43
f 47/47/47 46/46/46 45/45/45 48/48/48
f 51/51/51 50/50/50 49/49/49 52/52/52
f 55/55/55 54/54/54 53/53/53 56/56/56
f 58/58/58 57/57/57 60/60/60 59/59/59
f 61/61/61 64/64/64 63/63/63 62/62/62
f 65/65/65 68/68/68 67/67/67 66/66/66
f 69/69/69 72/72/72 71/71/71 70/70/70
f 76/76/76 75/75/75 74/74/74 73/73/73
f 79/79/79 78/78/78 77/77/77 80/80/80
f 83/83/83 82/82/82 81/81/81 84/84/84
f 87/87/87 86/86/86 85/85/85 88/88/88
f 90/90/90 89/89/89 92/92/92 91/91/91
f 93/93/93 96/96/96 95/95/95 94/94/94

