# Exported from ProBuilder
# http://www.procore3d.com/probuilder
# 06/07/2018 12:31:02

mtllib ./pb-MergedObject-458724.mtl
o pb-MergedObject-458724

g pb-MergedObject-458724
v -0.002912581 0.0745163 -0.5198021
v -0.003015042 0.0745163 0.8109871
v 0.5659491 0 -0.7016988
v -0.002912581 -0.02269161 -0.5198021
v -0.006077827 -0.02269161 0.8139753
v 0.5659491 -0.02269161 -0.7016988
v 0.5659491 0 -0.7016988
v -0.003015042 0.0745163 0.8109871
v 0.5659491 -0.02269161 -0.7016988
v -0.006077827 -0.02269161 0.8139753
v -0.003015042 0.0745163 0.8109871
v -0.002912581 0.0745163 -0.5198021
v -0.006077827 -0.02269161 0.8139753
v -0.002912581 -0.02269161 -0.5198021
v -0.002912581 0.0745163 -0.5198021
v 0.5659491 0 -0.7016988
v -0.002912581 -0.02269161 -0.5198021
v 0.5659491 -0.02269161 -0.7016988
v -0.002800524 0.07420897 -0.5169139
v -0.5685632 0 -0.6998934
v -0.003103614 0.07420897 0.8093184
v -0.002800524 -0.02190495 -0.5169139
v -0.5685632 -0.02190495 -0.6998934
v -0.007112206 -0.02190495 0.8124493
v -0.003103614 0.07420897 0.8093184
v -0.5685632 0 -0.6998934
v -0.007112206 -0.02190495 0.8124493
v -0.5685632 -0.02190495 -0.6998934
v -0.5685632 0 -0.6998934
v -0.002800524 0.07420897 -0.5169139
v -0.5685632 -0.02190495 -0.6998934
v -0.002800524 -0.02190495 -0.5169139
v -0.002800524 0.07420897 -0.5169139
v -0.003103614 0.07420897 0.8093184
v -0.002800524 -0.02190495 -0.5169139
v -0.007112206 -0.02190495 0.8124493

vn 0.1298855 0.991529 1.000263E-05
vn 0.1298855 0.991529 1.000263E-05
vn 0.1298855 0.991529 1.000263E-05
vn 0 -1 0
vn 0 -1 0
vn 0 -1 0
vn 0.9359815 0 0.3520492
vn 0.9355546 -0.01510449 0.3528593
vn 0.9355546 -0.01510449 0.3528593
vn 0.9354243 -0.01862085 0.3530363
vn -0.999504 0.03148958 -7.695433E-05
vn -0.9998754 0.01573298 -0.001226203
vn -0.9998754 0.01573298 -0.001226203
vn -0.9999971 0 -0.002373137
vn -0.3045646 0 -0.9524917
vn -0.3045646 0 -0.9524916
vn -0.3045646 0 -0.9524916
vn -0.3045646 0 -0.9524917
vn -0.1300428 0.9915082 -2.971932E-05
vn -0.1300428 0.9915082 -2.971932E-05
vn -0.1300428 0.9915082 -2.971932E-05
vn 0 -1 0
vn 0 -1 0
vn 0 -1 0
vn -0.9360522 0.05038339 0.3482352
vn -0.9364969 0.04104785 0.3482651
vn -0.9364969 0.04104785 0.3482651
vn -0.9374812 0 0.348036
vn 0.3077269 0 -0.9514747
vn 0.3077269 0 -0.9514747
vn 0.3077269 0 -0.9514747
vn 0.3077269 0 -0.9514748
vn 1 0 0.0002285349
vn 0.9997817 -0.02082049 0.001737375
vn 0.9997817 -0.02082049 0.001737375
vn 0.9991306 -0.04156485 0.003240599

vt 0.0003942691 -0.02513294
vt 2.661973 -0.02533988
vt -0.3633976 1.12231
vt -0.0003957748 -0.005825102
vt -2.66795 -0.01215586
vt 0.3633976 1.131898
vt 0.7396603 0.01732995
vt -2.492636 0.1664041
vt 0.7396603 -0.02804539
vt -2.500391 -0.02804539
vt 2.661981 0.1490326
vt 0.0004095981 0.1490326
vt 2.667972 -0.04538321
vt 0.0004095981 -0.04538321
vt 0.0056689 0.1490326
vt -1.188801 0
vt 0.0056689 -0.04538321
vt -1.188801 -0.04538321
vt 4.450616E-06 0.01930069
vt -0.3659592 -1.121915
vt 2.652469 0.01868905
vt 0 0
vt 0.3659592 -1.131525
vt -2.658726 -0.00862363
vt 2.486424 0.1484179
vt -0.7368912 0
vt 2.489505 -0.04380989
vt -0.7368912 -0.04380989
vt 1.189233 0
vt 0 0.1484179
vt 1.189233 -0.04380989
vt 0 -0.04380989
vt 0 0.1482897
vt -2.652452 0.1486221
vt 0 -0.04377203
vt -2.65874 -0.04377203

g pb-MergedObject-458724_0
usemtl Default_Prototype
f 7/7/7 8/8/8 10/10/10 9/9/9
f 11/11/11 12/12/12 14/14/14 13/13/13
f 15/15/15 16/16/16 18/18/18 17/17/17
f 25/25/25 26/26/26 28/28/28 27/27/27
f 29/29/29 30/30/30 32/32/32 31/31/31
f 33/33/33 34/34/34 36/36/36 35/35/35

g pb-MergedObject-458724_1
usemtl Default_Prototype
f 1/1/1 2/2/2 3/3/3
f 6/6/6 5/5/5 4/4/4
f 19/19/19 20/20/20 21/21/21
f 24/24/24 23/23/23 22/22/22

